<?xml version="1.0" standalone="no"?>
<!DOCTYPE svg PUBLIC "-//W3C//DTD SVG 20010904//EN"
 "http://www.w3.org/TR/2001/REC-SVG-20010904/DTD/svg10.dtd">
<svg version="1.0" xmlns="http://www.w3.org/2000/svg"
 width="500.000000pt" height="500.000000pt" viewBox="0 0 500.000000 500.000000"
 preserveAspectRatio="xMidYMid meet">
<metadata>
Created by potrace 1.11, written by Peter Selinger 2001-2013
</metadata>
<g transform="translate(0.000000,500.000000) scale(0.100000,-0.100000)"
fill="#000000" stroke="none">
<path d="M864 3657 c-2 -7 -3 -67 -2 -133 l3 -119 188 -3 187 -2 0 -485 0
-485 155 0 155 0 0 485 0 485 153 0 153 0 60 127 c32 69 61 130 62 135 2 4
-247 8 -552 8 -449 0 -558 -3 -562 -13z"/>
<path d="M2880 3535 l0 -135 185 0 185 0 0 -485 0 -485 155 0 155 0 0 485 0
485 155 0 154 0 55 115 c30 63 58 124 61 135 6 20 1 20 -549 20 l-556 0 0
-135z"/>
<path d="M2127 3163 c-4 -3 -7 -282 -7 -620 l0 -613 498 0 498 0 57 125 c31
69 57 129 57 135 0 7 -137 10 -400 10 l-400 0 0 485 0 485 -148 0 c-82 0 -152
-3 -155 -7z"/>
<path d="M4230 2456 c-166 -45 -303 -114 -394 -197 -94 -86 -70 -101 66 -43
123 53 266 101 324 108 41 6 54 4 68 -10 34 -33 40 -68 40 -223 1 -167 7 -183
51 -141 12 11 38 54 56 93 33 70 34 75 34 202 0 119 -2 134 -25 180 l-25 50
-55 2 c-33 1 -89 -7 -140 -21z"/>
<path d="M3995 2109 c-587 -410 -1270 -678 -2013 -788 -264 -40 -341 -45 -730
-46 -403 -2 -436 -5 -402 -39 17 -17 260 -68 440 -93 176 -24 630 -24 825 0
455 56 851 174 1233 366 299 150 599 363 777 553 93 99 99 138 22 138 -13 0
-81 -41 -152 -91z"/>
</g>
</svg>
